<?xml version="1.0" encoding="UTF-8" standalone="no"?>
<!DOCTYPE svg PUBLIC "-//W3C//DTD SVG 1.1//EN" "http://www.w3.org/Graphics/SVG/1.1/DTD/svg11.dtd">
<svg version="1.1" xmlns="http://www.w3.org/2000/svg" xmlns:xlink="http://www.w3.org/1999/xlink"
     preserveAspectRatio="xMidYMid meet" viewBox="0 0 640 640" width="640" height="640">
    <defs>
        <path d="M609.38 65.79L610.72 65.93L612.05 66.12L613.36 66.36L614.65 66.65L615.92 66.99L617.18 67.38L618.41 67.82L619.62 68.3L620.8 68.83L621.96 69.41L623.09 70.02L624.2 70.68L625.28 71.38L626.33 72.12L627.35 72.9L628.34 73.72L629.3 74.57L630.22 75.46L631.11 76.38L631.96 77.34L632.78 78.33L633.56 79.35L634.3 80.4L635 81.48L635.65 82.58L636.27 83.72L636.85 84.88L637.37 86.06L637.86 87.27L638.3 88.5L638.69 89.75L639.03 91.03L639.32 92.32L639.56 93.63L639.75 94.96L639.89 96.3L639.97 97.66L640 99.03L640 460.13L639.97 461.51L639.89 462.87L639.75 464.21L639.56 465.54L639.32 466.85L639.03 468.14L638.69 469.41L638.3 470.67L637.86 471.9L637.37 473.11L636.85 474.29L636.27 475.45L635.65 476.58L635 477.69L634.3 478.77L633.56 479.82L632.78 480.84L631.96 481.83L631.11 482.79L630.22 483.71L629.3 484.6L628.34 485.45L627.35 486.27L626.33 487.05L625.28 487.79L624.2 488.49L623.09 489.14L621.96 489.76L620.8 490.34L619.62 490.86L618.41 491.35L617.18 491.79L615.92 492.18L614.65 492.52L613.36 492.81L612.05 493.05L610.72 493.24L609.38 493.38L608.02 493.46L606.64 493.49L400.93 493.49L409.28 561.46L449.67 561.46L449.94 561.47L450.2 561.49L450.46 561.51L450.71 561.55L450.97 561.59L451.21 561.65L451.46 561.72L451.7 561.79L451.94 561.88L452.17 561.97L452.4 562.07L452.62 562.18L452.84 562.3L453.06 562.43L453.26 562.56L453.47 562.7L453.66 562.85L453.85 563.01L454.04 563.18L454.22 563.35L454.39 563.53L454.55 563.71L454.71 563.9L454.86 564.1L455 564.3L455.14 564.51L455.26 564.72L455.38 564.94L455.49 565.16L455.59 565.39L455.69 565.62L455.77 565.86L455.85 566.1L455.91 566.35L455.97 566.6L456.01 566.85L456.05 567.11L456.08 567.37L456.09 567.63L456.1 567.89L456.09 568.16L456.08 568.42L456.05 568.68L456.02 568.93L455.97 569.19L455.91 569.44L455.85 569.68L455.77 569.92L455.69 570.16L455.59 570.39L455.49 570.62L455.38 570.85L455.26 571.06L455.14 571.28L455 571.49L454.86 571.69L454.71 571.88L454.55 572.08L454.39 572.26L454.22 572.44L454.04 572.61L453.85 572.77L453.66 572.93L453.47 573.08L453.27 573.22L453.06 573.36L452.84 573.48L452.63 573.6L452.4 573.71L452.17 573.82L451.94 573.91L451.7 573.99L451.46 574.07L451.22 574.13L450.97 574.19L450.71 574.24L450.46 574.27L450.2 574.3L449.94 574.32L449.67 574.32L190.33 574.32L190.06 574.32L189.8 574.3L189.54 574.27L189.28 574.24L189.03 574.19L188.78 574.13L188.54 574.07L188.29 573.99L188.06 573.91L187.82 573.82L187.6 573.71L187.37 573.6L187.15 573.48L186.94 573.36L186.73 573.22L186.53 573.08L186.33 572.93L186.14 572.77L185.96 572.61L185.78 572.44L185.61 572.26L185.45 572.08L185.29 571.88L185.14 571.69L185 571.49L184.86 571.28L184.73 571.06L184.62 570.85L184.51 570.62L184.4 570.39L184.31 570.16L184.23 569.92L184.15 569.68L184.08 569.44L184.03 569.19L183.98 568.93L183.95 568.68L183.92 568.42L183.9 568.16L183.9 567.89L183.9 567.63L183.92 567.37L183.95 567.11L183.98 566.85L184.03 566.6L184.08 566.35L184.15 566.1L184.23 565.86L184.31 565.62L184.4 565.39L184.51 565.16L184.62 564.94L184.73 564.72L184.86 564.51L185 564.3L185.14 564.1L185.29 563.9L185.45 563.71L185.61 563.53L185.78 563.35L185.96 563.18L186.14 563.01L186.33 562.85L186.53 562.7L186.73 562.56L186.94 562.43L187.15 562.3L187.37 562.18L187.6 562.07L187.82 561.97L188.06 561.88L188.29 561.79L188.54 561.72L188.78 561.65L189.03 561.59L189.28 561.55L189.54 561.51L189.8 561.49L190.06 561.47L190.33 561.46L230.71 561.46L239.07 493.49L33.35 493.49L31.98 493.46L30.62 493.38L29.28 493.24L27.95 493.05L26.64 492.81L25.35 492.52L24.08 492.18L22.82 491.79L21.59 491.35L20.38 490.86L19.2 490.33L18.04 489.76L16.9 489.14L15.8 488.48L14.72 487.79L13.67 487.05L12.65 486.27L11.66 485.45L10.7 484.6L9.78 483.71L8.89 482.79L8.04 481.83L7.22 480.84L6.44 479.82L5.7 478.77L5 477.69L4.35 476.58L3.73 475.45L3.15 474.29L2.63 473.1L2.14 471.9L1.7 470.66L1.31 469.41L0.97 468.14L0.68 466.85L0.44 465.54L0.25 464.21L0.11 462.86L0.03 461.51L0 460.13L0 99.03L0.03 97.66L0.11 96.3L0.25 94.96L0.44 93.63L0.68 92.32L0.97 91.03L1.31 89.75L1.7 88.5L2.14 87.27L2.63 86.06L3.15 84.88L3.73 83.72L4.35 82.58L5 81.48L5.7 80.4L6.44 79.35L7.22 78.33L8.04 77.34L8.89 76.38L9.78 75.46L10.7 74.57L11.66 73.72L12.65 72.9L13.67 72.12L14.72 71.38L15.8 70.68L16.9 70.02L18.04 69.41L19.2 68.83L20.38 68.3L21.59 67.82L22.82 67.38L24.08 66.99L25.35 66.65L26.64 66.36L27.95 66.12L29.28 65.93L30.62 65.79L31.98 65.71L33.35 65.68L606.64 65.68L608.02 65.71L609.38 65.79ZM243.67 561.46L396.33 561.46L387.98 493.49L252.02 493.49L243.67 561.46ZM12.86 460.13L12.87 460.98L12.92 461.81L13.01 462.64L13.13 463.45L13.27 464.26L13.45 465.05L13.66 465.84L13.9 466.61L14.17 467.36L14.47 468.11L14.8 468.83L15.15 469.55L15.53 470.24L15.93 470.92L16.36 471.59L16.82 472.23L17.29 472.86L17.8 473.47L18.32 474.05L18.87 474.62L19.43 475.17L20.02 475.69L20.63 476.19L21.26 476.67L21.9 477.13L22.56 477.56L23.24 477.96L23.94 478.34L24.65 478.69L25.38 479.02L26.12 479.32L26.88 479.59L27.65 479.83L28.43 480.04L29.23 480.22L30.03 480.36L30.85 480.48L31.67 480.57L32.51 480.62L33.35 480.63L606.65 480.63L607.49 480.62L608.33 480.57L609.15 480.48L609.97 480.36L610.77 480.22L611.57 480.04L612.35 479.83L613.12 479.59L613.88 479.32L614.62 479.02L615.35 478.69L616.06 478.34L616.76 477.96L617.44 477.56L618.1 477.13L618.75 476.67L619.37 476.19L619.98 475.69L620.57 475.17L621.14 474.62L621.68 474.05L622.21 473.47L622.71 472.86L623.19 472.23L623.64 471.59L624.07 470.92L624.48 470.24L624.85 469.55L625.21 468.83L625.53 468.11L625.83 467.36L626.1 466.61L626.34 465.84L626.55 465.05L626.73 464.26L626.88 463.45L626.99 462.64L627.08 461.81L627.13 460.98L627.15 460.13L627.15 423.68L12.86 423.68L12.86 460.13ZM32.51 78.55L31.67 78.6L30.85 78.69L30.03 78.8L29.23 78.95L28.43 79.13L27.65 79.34L26.88 79.58L26.12 79.85L25.38 80.15L24.65 80.47L23.94 80.83L23.24 81.21L22.56 81.61L21.9 82.04L21.26 82.5L20.63 82.97L20.02 83.48L19.43 84L18.87 84.55L18.32 85.11L17.8 85.7L17.29 86.31L16.82 86.93L16.36 87.58L15.93 88.24L15.53 88.92L15.15 89.62L14.8 90.33L14.47 91.06L14.17 91.8L13.9 92.56L13.66 93.33L13.45 94.11L13.27 94.91L13.13 95.71L13.01 96.53L12.92 97.35L12.87 98.19L12.86 99.03L12.86 410.82L627.14 410.82L627.14 99.03L627.13 98.19L627.08 97.35L626.99 96.53L626.87 95.71L626.73 94.91L626.55 94.11L626.34 93.33L626.1 92.56L625.83 91.8L625.53 91.06L625.2 90.33L624.85 89.62L624.47 88.92L624.07 88.24L623.64 87.58L623.18 86.93L622.7 86.31L622.2 85.7L621.68 85.11L621.13 84.55L620.56 84L619.98 83.48L619.37 82.97L618.74 82.5L618.1 82.04L617.43 81.61L616.75 81.21L616.06 80.83L615.34 80.47L614.62 80.15L613.87 79.85L613.12 79.58L612.35 79.34L611.56 79.13L610.77 78.95L609.96 78.8L609.15 78.69L608.32 78.6L607.49 78.55L606.64 78.54L33.35 78.54L32.51 78.55Z"
              id="d6U3bpPUWy"></path>
        <path d="M286.59 193.25L286.79 193.27L286.98 193.28L287.17 193.31L287.36 193.34L287.55 193.37L287.75 193.41L287.94 193.45L288.13 193.5L288.32 193.56L288.5 193.62L288.69 193.68L288.88 193.75L289.07 193.83L289.25 193.91L289.43 193.99L289.62 194.08L289.8 194.18L289.98 194.28L380.11 246.32L380.27 246.43L380.44 246.54L380.6 246.65L380.76 246.77L380.91 246.89L381.06 247.01L381.21 247.14L381.35 247.27L381.49 247.4L381.63 247.54L381.76 247.67L381.89 247.82L382.02 247.96L382.14 248.11L382.25 248.26L382.37 248.42L382.48 248.57L382.58 248.73L382.68 248.89L382.78 249.06L382.87 249.22L382.96 249.39L383.04 249.56L383.12 249.73L383.2 249.91L383.27 250.09L383.33 250.26L383.39 250.44L383.45 250.63L383.5 250.81L383.55 251L383.59 251.18L383.63 251.37L383.66 251.56L383.69 251.76L383.71 251.95L383.73 252.14L383.74 252.34L383.75 252.53L383.75 252.73L383.75 252.93L383.74 253.13L383.73 253.32L383.71 253.52L383.69 253.71L383.66 253.91L383.63 254.1L383.59 254.29L383.55 254.48L383.5 254.67L383.45 254.86L383.39 255.05L383.33 255.23L383.26 255.41L383.19 255.6L383.11 255.78L383.03 255.95L382.95 256.13L382.86 256.3L382.76 256.47L382.66 256.64L382.56 256.81L382.45 256.97L382.34 257.13L382.22 257.29L382.1 257.44L381.98 257.6L381.85 257.75L381.72 257.89L381.58 258.04L381.44 258.18L381.29 258.31L381.14 258.44L380.99 258.57L380.83 258.7L380.67 258.82L380.5 258.94L380.33 259.05L380.16 259.16L379.98 259.27L289.98 311.31L289.89 311.36L289.81 311.4L289.72 311.45L289.63 311.49L289.54 311.53L289.45 311.58L289.36 311.62L289.27 311.66L289.18 311.69L289.09 311.73L288.99 311.77L288.9 311.8L288.81 311.84L288.71 311.87L288.62 311.9L288.52 311.94L288.43 311.97L288.33 311.99L288.24 312.02L288.14 312.05L288.04 312.07L287.94 312.1L287.85 312.12L287.75 312.14L287.65 312.16L287.56 312.18L287.46 312.2L287.36 312.22L287.26 312.23L287.17 312.25L287.07 312.26L286.97 312.27L286.88 312.28L286.78 312.29L286.68 312.3L286.59 312.3L286.49 312.31L286.4 312.31L286.3 312.32L286.21 312.32L286.11 312.32L286.02 312.31L285.92 312.31L285.83 312.3L285.73 312.3L285.63 312.29L285.54 312.28L285.44 312.27L285.34 312.26L285.25 312.25L285.15 312.23L285.05 312.22L284.95 312.2L284.86 312.18L284.76 312.16L284.66 312.14L284.56 312.12L284.47 312.1L284.37 312.07L284.27 312.05L284.18 312.02L284.08 311.99L283.98 311.97L283.89 311.94L283.79 311.9L283.7 311.87L283.6 311.84L283.51 311.8L283.42 311.77L283.32 311.73L283.23 311.69L283.14 311.66L283.05 311.62L282.96 311.58L282.87 311.53L282.78 311.49L282.69 311.45L282.61 311.4L282.52 311.36L282.43 311.31L282.26 311.2L282.08 311.09L281.91 310.98L281.75 310.86L281.59 310.74L281.43 310.61L281.28 310.49L281.13 310.35L280.98 310.22L280.84 310.08L280.7 309.93L280.57 309.79L280.44 309.64L280.31 309.49L280.19 309.33L280.08 309.17L279.96 309.01L279.86 308.85L279.75 308.68L279.65 308.51L279.56 308.34L279.47 308.17L279.38 307.99L279.3 307.82L279.23 307.64L279.16 307.46L279.09 307.27L279.03 307.09L278.97 306.9L278.92 306.71L278.87 306.52L278.83 306.33L278.79 306.14L278.76 305.95L278.73 305.76L278.7 305.56L278.69 305.36L278.67 305.17L278.67 304.97L278.66 304.77L278.66 200.82L278.67 200.62L278.67 200.42L278.69 200.23L278.7 200.03L278.73 199.83L278.76 199.64L278.79 199.45L278.83 199.26L278.87 199.07L278.92 198.88L278.97 198.69L279.03 198.5L279.09 198.32L279.16 198.13L279.23 197.95L279.3 197.77L279.38 197.6L279.47 197.42L279.56 197.25L279.65 197.08L279.75 196.91L279.86 196.74L279.96 196.58L280.08 196.42L280.19 196.26L280.31 196.1L280.44 195.95L280.57 195.8L280.7 195.66L280.84 195.51L280.98 195.37L281.13 195.24L281.28 195.1L281.43 194.98L281.59 194.85L281.75 194.73L281.91 194.61L282.08 194.5L282.26 194.39L282.43 194.28L282.61 194.18L282.8 194.08L282.98 193.99L283.16 193.91L283.35 193.83L283.53 193.75L283.72 193.68L283.91 193.62L284.1 193.56L284.28 193.5L284.48 193.45L284.67 193.41L284.86 193.37L285.05 193.34L285.24 193.31L285.43 193.28L285.63 193.27L285.82 193.25L286.01 193.25L286.21 193.24L286.4 193.25L286.59 193.25ZM361.13 252.86L293.75 213.89L293.75 291.83L361.13 252.86Z"
              id="a5OYucXVbS"></path>
    </defs>
    <g>
        <g>
            <g>
                <use xlink:href="#d6U3bpPUWy" opacity="1" fill="#aaabac" fill-opacity="1"></use>
                <g>
                    <use xlink:href="#d6U3bpPUWy" opacity="1" fill-opacity="0" stroke="#000000" stroke-width="1"
                         stroke-opacity="0"></use>
                </g>
            </g>
            <g>
                <use xlink:href="#a5OYucXVbS" opacity="1" fill="#aaabac" fill-opacity="1"></use>
                <g>
                    <use xlink:href="#a5OYucXVbS" opacity="1" fill-opacity="0" stroke="#000000" stroke-width="1"
                         stroke-opacity="0"></use>
                </g>
            </g>
        </g>
    </g>
</svg>