<!DOCTYPE svg PUBLIC "-//W3C//DTD SVG 20010904//EN" "http://www.w3.org/TR/2001/REC-SVG-20010904/DTD/svg10.dtd">
<svg version="1.0" xmlns="http://www.w3.org/2000/svg" width="91px" height="287px" viewBox="0 0 910 2870" preserveAspectRatio="xMidYMid meet">
<g id="layer1" fill="#ffffff" stroke="none">
 <path d="M180 2778 c1 -120 17 -513 30 -738 6 -96 11 -201 11 -232 0 -44 4 -58 15 -58 13 0 14 19 8 133 -3 72 -7 175 -9 227 -6 256 -16 566 -21 658 -5 78 -9 102 -20 102 -11 0 -14 -20 -14 -92z"/>
 <path d="M226 1724 c-3 -10 -2 -32 2 -49 l8 -30 7 33 c8 40 -6 79 -17 46z"/>
 <path d="M241 1624 c0 -11 3 -14 6 -6 3 7 2 16 -1 19 -3 4 -6 -2 -5 -13z"/>
 <path d="M306 1472 c-3 -5 -15 -35 -27 -68 -26 -68 -27 -121 -4 -309 8 -66 19 -167 25 -225 19 -183 39 -344 46 -367 5 -19 2 -23 -15 -23 -12 0 -35 -7 -51 -15 -19 -10 -72 -18 -142 -22 -111 -6 -138 -13 -138 -38 0 -18 83 -43 183 -54 119 -14 167 -36 195 -88 23 -43 17 -46 -67 -39 -78 6 -104 -1 -78 -22 6 -5 44 -13 83 -17 l72 -7 7 -66 c14 -139 33 -153 37 -29 l3 82 200 5 c216 5 275 18 275 58 0 22 -45 38 -160 58 -154 27 -186 33 -239 51 -63 21 -127 72 -119 95 4 9 26 17 60 22 79 10 191 50 253 91 58 39 115 123 115 172 0 28 -6 34 -140 144 -206 170 -272 269 -290 439 -11 98 -63 205 -84 172z m34 -104 c10 -23 15 -66 15 -138 l0 -105 41 -60 c44 -66 145 -155 270 -240 44 -30 90 -66 102 -78 21 -23 22 -25 6 -70 -17 -52 -67 -101 -123 -124 -20 -8 -45 -18 -56 -23 -21 -10 -114 -29 -176 -37 l-36 -5 -6 59 c-4 32 -13 110 -21 173 -8 63 -21 178 -30 255 -9 77 -21 170 -27 207 -10 52 -9 82 2 142 7 42 15 76 19 76 3 0 12 -15 20 -32z m20 -974 l0 -37 -37 7 c-21 3 -64 9 -96 13 -32 3 -60 9 -62 13 -5 8 121 37 168 39 25 1 27 -2 27 -35z m200 -108 c178 -35 256 -48 278 -48 12 0 22 -4 22 -8 0 -16 -49 -20 -236 -20 -212 0 -204 -3 -204 67 0 40 -12 39 140 9z"/>
 </g>

</svg>